<?xml version="1.0" ?>
<svg xmlns="http://www.w3.org/2000/svg" xmlns:ev="http://www.w3.org/2001/xml-events" xmlns:xlink="http://www.w3.org/1999/xlink" baseProfile="full" height="421px" version="1.1" viewBox="-64.01534170054242 -44.814621700001 128.03068340237795 89.629243400002" width="600px">
	<defs/>
	<path d="M -48.851700000343435,-35.301100000000005 L 48.85170000163652,-35.301100000000005 A 2.45,2.45 0.0 0,1 51.301700001636526,-32.8511 L 51.301700001636526,32.8511 A 2.45,2.45 0.0 0,1 48.85170000163652,35.301100000000005 L -48.851700000343435,35.301100000000005 A 2.45,2.45 0.0 0,1 -51.30170000034344,32.8511 L -51.30170000034344,-32.8511 A 2.45,2.45 0.0 0,1 -48.851700000343435,-35.301100000000005" fill="none" stroke="#000000" stroke-width="0.10660340000197996"/>
	<path d="M -48.851700000343435,-37.301100000000005 L 48.85170000163652,-37.301100000000005 A 4.45,4.45 0.0 0,1 53.301700001636526,-32.8511 L 53.301700001636526,32.8511 A 4.45,4.45 0.0 0,1 48.85170000163652,37.301100000000005 L -48.851700000343435,37.301100000000005 A 4.45,4.45 0.0 0,1 -53.30170000034344,32.8511 L -53.30170000034344,-32.8511 A 4.45,4.45 0.0 0,1 -48.851700000343435,-37.301100000000005" fill="none" stroke="#000000" stroke-width="0.10660340000197996"/>
	<path d="M -50.076700000343436,-32.8511 A 1.2250000000000012,1.2250000000000012 0.0 1,0 -47.62670000034343,-32.8511 A 1.2250000000000012,1.2250000000000012 0.0 1,0 -50.076700000343436,-32.8511" fill="none" stroke="#000000" stroke-width="0.10660340000197996"/>
	<path d="M -50.076700000343436,32.8511 A 1.2250000000000012,1.2250000000000012 0.0 1,0 -47.62670000034343,32.8511 A 1.2250000000000012,1.2250000000000012 0.0 1,0 -50.076700000343436,32.8511" fill="none" stroke="#000000" stroke-width="0.10660340000197996"/>
	<path d="M 47.62670000163652,-32.8511 A 1.2250000000000012,1.2250000000000012 0.0 1,0 50.076700001636524,-32.8511 A 1.2250000000000012,1.2250000000000012 0.0 1,0 47.62670000163652,-32.8511" fill="none" stroke="#000000" stroke-width="0.10660340000197996"/>
	<path d="M 47.62670000163652,32.8511 A 1.2250000000000012,1.2250000000000012 0.0 1,0 50.076700001636524,32.8511 A 1.2250000000000012,1.2250000000000012 0.0 1,0 47.62670000163652,32.8511" fill="none" stroke="#000000" stroke-width="0.10660340000197996"/>
</svg>
