<?xml version="1.0" encoding="UTF-8" standalone="no"?>
<!-- Created with Inkscape (http://www.inkscape.org/) -->

<svg
   version="1.1"
   id="svg2"
   width="92.20359mm"
   height="60.202236mm"
   viewBox="0 0 348.48603 227.53601"
   sodipodi:docname="TELEM.svg"
   inkscape:version="1.4.2 (f4327f4, 2025-05-13)"
   xmlns:inkscape="http://www.inkscape.org/namespaces/inkscape"
   xmlns:sodipodi="http://sodipodi.sourceforge.net/DTD/sodipodi-0.dtd"
   xmlns="http://www.w3.org/2000/svg"
   xmlns:svg="http://www.w3.org/2000/svg">
  <defs
     id="defs6" />
  <sodipodi:namedview
     id="namedview4"
     pagecolor="#ffffff"
     bordercolor="#000000"
     borderopacity="0.25"
     inkscape:showpageshadow="2"
     inkscape:pageopacity="0.0"
     inkscape:pagecheckerboard="0"
     inkscape:deskcolor="#d1d1d1"
     showgrid="false"
     inkscape:zoom="2.4373668"
     inkscape:cx="109.54445"
     inkscape:cy="110.57014"
     inkscape:window-width="2560"
     inkscape:window-height="1369"
     inkscape:window-x="-8"
     inkscape:window-y="-8"
     inkscape:window-maximized="1"
     inkscape:current-layer="g10"
     inkscape:document-units="mm">
    <inkscape:page
       x="0"
       y="0"
       id="page8"
       width="348.48602"
       height="227.53601"
       margin="0"
       bleed="0" />
  </sodipodi:namedview>
  <g
     id="g10"
     inkscape:groupmode="layer"
     inkscape:label="Page 1"
     transform="translate(-386.962,-283.132)">
    <path
       id="path170"
       style="fill:none;stroke:#00ff00;stroke-width:0.756;stroke-linecap:round;stroke-linejoin:round;stroke-miterlimit:10;stroke-dasharray:none;stroke-opacity:1"
       d="m 701.04999,313.06577 v 0 c 0,2.65 2.15,4.8 4.8,4.8 0,0 0,0 0,0 m -284.49,163.55001 v 0 c 0,-2.65 -2.15,-4.8 -4.8,-4.8 0,0 0,0 0,0 m 10e-6,-158.74999 v 0 c 2.65,0 4.8,-2.15 4.8,-4.8 0,0 0,0 0,0 m 284.48998,163.55 v 0 c -2.65,0 -4.8,2.15 -4.8,4.8 0,0 0,0 0,0 M 696.25,510.62577 v 0 c 2.65,0 4.8,-2.15 4.8,-4.8 0,0 0,0 0,0 m 29.22002,-29.20998 v 0 c 2.65,0 4.8,-2.15 4.8,-4.8 0,0 0,0 0,0 m -10e-6,-149.15001 v 0 c 0,-2.65 -2.15,-4.8 -4.8,-4.8 0,0 0,0 0,0 m -29.22002,-29.21999 v 0 c 0,-2.65 -2.15,-4.8 -4.8,-4.8 0,0 0,0 0,0 m -304.10998,34.02 v 0 c -2.65,0 -4.8,2.15 -4.8,4.8 0,0 0,0 0,0 M 426.16,283.84577 v 0 c -2.65,0 -4.8,2.15 -4.8,4.8 0,0 0,0 0,0 m -34.02,183.17 v 0 c 0,2.65 2.15,4.8 4.8,4.8 0,0 0,0 0,0 m 29.21999,29.21001 v 0 c 0,2.65 2.15,4.8 4.8,4.8 0,0 0,0 0,0 M 387.34,327.69578 v 135.69 m 64.64001,47.23999 h 231.30997 m 51.78003,-181.03998 v 132.65998 m -298.21002,-178.4 h 255.88 m 8.31,25.44 v 3.78 m 4.79999,4.80002 H 709.63 m -296.85,158.75 h 3.78 m 4.79999,4.79999 v 3.78 M 412.78,317.86579 h 3.78 m 4.79999,-8.58002 v 3.78 m 279.69,168.35001 v 3.78 m 4.79999,-8.57999 H 709.63 m -26.34002,34.00998 H 696.25 m 4.79999,-25.42999 v 20.63 M 709.63,476.61579 h 20.64002 m 4.79999,-14.37002 v 9.57 m 0,-149.14999 v 6.92001 m -25.44001,-11.72 h 20.64002 m -29.22003,-29.22 v 20.63998 m -8.31,-25.44 H 696.25 M 392.14001,317.86579 H 412.78 m -25.44,4.79999 v 5.03 m 34.01999,-39.04999 v 20.63998 m 4.80001,-25.44 h 10.69999 M 387.34,463.38578 v 8.42999 m 4.80001,4.80002 H 412.78 m 8.57999,8.57999 v 20.63 m 4.80001,4.79999 h 25.82001" />
    <path
       d="m 484.66918,312.18577 c 0,-3.64955 -2.95963,-6.60918 -6.61917,-6.60918 -3.64955,0 -6.60918,2.95963 -6.60918,6.61917 0,3.64955 2.95963,6.60918 6.61917,6.60918 3.64955,0 6.60918,-2.95963 6.60918,-6.61917 z"
       style="fill:none;fill-opacity:1;fill-rule:evenodd;stroke:#0000ff;stroke-width:0.999875;stroke-opacity:1"
       id="path178" />
    <path
       d="m 484.66918,482.27579 c 0,-3.64955 -2.95963,-6.60918 -6.61917,-6.60918 -3.64955,0 -6.60918,2.95963 -6.60918,6.61917 0,3.64955 2.95963,6.60918 6.61917,6.60918 3.64955,0 6.60918,-2.95963 6.60918,-6.61917 z"
       style="fill:none;fill-opacity:1;fill-rule:evenodd;stroke:#0000ff;stroke-width:0.999875;stroke-opacity:1"
       id="path218" />
    <path
       d="m 650.96914,312.18577 c 0,-3.64955 -2.95963,-6.60918 -6.61917,-6.60918 -3.64955,0 -6.60918,2.95963 -6.60918,6.61917 0,3.64955 2.95963,6.60918 6.61917,6.60918 3.64955,0 6.60918,-2.95963 6.60918,-6.61917 z"
       style="fill:none;fill-opacity:1;fill-rule:evenodd;stroke:#0000ff;stroke-width:0.999875;stroke-opacity:1"
       id="path226" />
    <path
       d="m 650.96914,482.27579 c 0,-3.64955 -2.95963,-6.60918 -6.61917,-6.60918 -3.64955,0 -6.60918,2.95963 -6.60918,6.61917 0,3.64955 2.95963,6.60918 6.61917,6.60918 3.64955,0 6.60918,-2.95963 6.60918,-6.61917 z"
       style="fill:none;fill-opacity:1;fill-rule:evenodd;stroke:#0000ff;stroke-width:0.999875;stroke-opacity:1"
       id="path234" />
    <path
       d="m 496.29999,344.88578 v 0"
       style="fill:none;stroke:#000000;stroke-width:3.78;stroke-linecap:round;stroke-linejoin:round;stroke-miterlimit:10;stroke-dasharray:none;stroke-opacity:1"
       id="path238" />
    <path
       d="m 511.81,307.47578 v 0"
       style="fill:none;stroke:#000000;stroke-width:3.78;stroke-linecap:round;stroke-linejoin:round;stroke-miterlimit:10;stroke-dasharray:none;stroke-opacity:1"
       id="path242" />
    <path
       d="m 518.59998,299.91578 v 0"
       style="fill:none;stroke:#000000;stroke-width:3.78;stroke-linecap:round;stroke-linejoin:round;stroke-miterlimit:10;stroke-dasharray:none;stroke-opacity:1"
       id="path246" />
    <path
       d="m 507.91,420.29578 v 0"
       style="fill:none;stroke:#000000;stroke-width:3.78;stroke-linecap:round;stroke-linejoin:round;stroke-miterlimit:10;stroke-dasharray:none;stroke-opacity:1"
       id="path250" />
    <path
       d="m 507.91,410.50578 v 0"
       style="fill:none;stroke:#000000;stroke-width:3.78;stroke-linecap:round;stroke-linejoin:round;stroke-miterlimit:10;stroke-dasharray:none;stroke-opacity:1"
       id="path254" />
    <path
       d="m 453.26999,428.60578 v 0"
       style="fill:none;stroke:#000000;stroke-width:3.78;stroke-linecap:round;stroke-linejoin:round;stroke-miterlimit:10;stroke-dasharray:none;stroke-opacity:1"
       id="path258" />
    <path
       d="m 498.29999,432.57578 v 0"
       style="fill:none;stroke:#000000;stroke-width:3.78;stroke-linecap:round;stroke-linejoin:round;stroke-miterlimit:10;stroke-dasharray:none;stroke-opacity:1"
       id="path262" />
    <path
       d="m 484.10001,391.19578 v 0"
       style="fill:none;stroke:#000000;stroke-width:3.78;stroke-linecap:round;stroke-linejoin:round;stroke-miterlimit:10;stroke-dasharray:none;stroke-opacity:1"
       id="path266" />
    <path
       d="m 424.57001,370.40577 v 0"
       style="fill:none;stroke:#000000;stroke-width:3.78;stroke-linecap:round;stroke-linejoin:round;stroke-miterlimit:10;stroke-dasharray:none;stroke-opacity:1"
       id="path270" />
    <path
       d="m 417.07001,368.13578 v 0"
       style="fill:none;stroke:#000000;stroke-width:3.78;stroke-linecap:round;stroke-linejoin:round;stroke-miterlimit:10;stroke-dasharray:none;stroke-opacity:1"
       id="path274" />
    <path
       d="m 399.82001,413.11579 v 0"
       style="fill:none;stroke:#000000;stroke-width:3.78;stroke-linecap:round;stroke-linejoin:round;stroke-miterlimit:10;stroke-dasharray:none;stroke-opacity:1"
       id="path278" />
    <path
       d="m 446.85999,375.69578 v 0"
       style="fill:none;stroke:#000000;stroke-width:3.78;stroke-linecap:round;stroke-linejoin:round;stroke-miterlimit:10;stroke-dasharray:none;stroke-opacity:1"
       id="path282" />
    <path
       d="m 473.51999,403.28577 v 0"
       style="fill:none;stroke:#000000;stroke-width:3.78;stroke-linecap:round;stroke-linejoin:round;stroke-miterlimit:10;stroke-dasharray:none;stroke-opacity:1"
       id="path286" />
    <path
       d="m 536.64001,356.88578 v 0"
       style="fill:none;stroke:#000000;stroke-width:3.78;stroke-linecap:round;stroke-linejoin:round;stroke-miterlimit:10;stroke-dasharray:none;stroke-opacity:1"
       id="path290" />
    <path
       d="m 478.06,336.76578 v 0"
       style="fill:none;stroke:#000000;stroke-width:3.78;stroke-linecap:round;stroke-linejoin:round;stroke-miterlimit:10;stroke-dasharray:none;stroke-opacity:1"
       id="path294" />
    <path
       d="m 482.59,346.21577 v 0"
       style="fill:none;stroke:#000000;stroke-width:3.78;stroke-linecap:round;stroke-linejoin:round;stroke-miterlimit:10;stroke-dasharray:none;stroke-opacity:1"
       id="path298" />
    <path
       d="m 490.14999,352.07578 v 0"
       style="fill:none;stroke:#000000;stroke-width:3.78;stroke-linecap:round;stroke-linejoin:round;stroke-miterlimit:10;stroke-dasharray:none;stroke-opacity:1"
       id="path302" />
    <path
       d="m 488.26001,339.29578 v 0"
       style="fill:none;stroke:#000000;stroke-width:3.78;stroke-linecap:round;stroke-linejoin:round;stroke-miterlimit:10;stroke-dasharray:none;stroke-opacity:1"
       id="path306" />
    <path
       d="m 538.27002,301.37577 v 0"
       style="fill:none;stroke:#000000;stroke-width:3.78;stroke-linecap:round;stroke-linejoin:round;stroke-miterlimit:10;stroke-dasharray:none;stroke-opacity:1"
       id="path310" />
    <path
       d="m 583.58002,450.79578 v 0"
       style="fill:none;stroke:#000000;stroke-width:3.78;stroke-linecap:round;stroke-linejoin:round;stroke-miterlimit:10;stroke-dasharray:none;stroke-opacity:1"
       id="path314" />
    <path
       d="m 572.54999,375.99577 v 0"
       style="fill:none;stroke:#000000;stroke-width:3.78;stroke-linecap:round;stroke-linejoin:round;stroke-miterlimit:10;stroke-dasharray:none;stroke-opacity:1"
       id="path318" />
    <path
       d="m 617.15002,459.52579 v 0"
       style="fill:none;stroke:#000000;stroke-width:3.78;stroke-linecap:round;stroke-linejoin:round;stroke-miterlimit:10;stroke-dasharray:none;stroke-opacity:1"
       id="path322" />
    <path
       d="m 612.98999,466.32578 v 0"
       style="fill:none;stroke:#000000;stroke-width:3.78;stroke-linecap:round;stroke-linejoin:round;stroke-miterlimit:10;stroke-dasharray:none;stroke-opacity:1"
       id="path326" />
    <path
       d="m 540.79999,400.82578 v 0"
       style="fill:none;stroke:#000000;stroke-width:3.78;stroke-linecap:round;stroke-linejoin:round;stroke-miterlimit:10;stroke-dasharray:none;stroke-opacity:1"
       id="path330" />
    <path
       d="m 437.26001,360.39579 v 0"
       style="fill:none;stroke:#000000;stroke-width:3.78;stroke-linecap:round;stroke-linejoin:round;stroke-miterlimit:10;stroke-dasharray:none;stroke-opacity:1"
       id="path334" />
    <path
       d="m 530.59003,302.74577 v 0"
       style="fill:none;stroke:#000000;stroke-width:3.78;stroke-linecap:round;stroke-linejoin:round;stroke-miterlimit:10;stroke-dasharray:none;stroke-opacity:1"
       id="path338" />
    <path
       d="m 471.82001,346.21577 v 0"
       style="fill:none;stroke:#000000;stroke-width:3.78;stroke-linecap:round;stroke-linejoin:round;stroke-miterlimit:10;stroke-dasharray:none;stroke-opacity:1"
       id="path342" />
    <path
       d="m 572.54999,366.54578 v 0"
       style="fill:none;stroke:#000000;stroke-width:3.78;stroke-linecap:round;stroke-linejoin:round;stroke-miterlimit:10;stroke-dasharray:none;stroke-opacity:1"
       id="path346" />
    <path
       d="m 571.40997,410.76578 v 0"
       style="fill:none;stroke:#000000;stroke-width:3.78;stroke-linecap:round;stroke-linejoin:round;stroke-miterlimit:10;stroke-dasharray:none;stroke-opacity:1"
       id="path350" />
    <path
       d="m 579.72998,372.15577 v 0"
       style="fill:none;stroke:#000000;stroke-width:3.78;stroke-linecap:round;stroke-linejoin:round;stroke-miterlimit:10;stroke-dasharray:none;stroke-opacity:1"
       id="path354" />
    <path
       d="m 592.40002,372.15577 v 0"
       style="fill:none;stroke:#000000;stroke-width:3.78;stroke-linecap:round;stroke-linejoin:round;stroke-miterlimit:10;stroke-dasharray:none;stroke-opacity:1"
       id="path358" />
    <path
       d="m 490.14999,442.31577 v 0"
       style="fill:none;stroke:#000000;stroke-width:3.78;stroke-linecap:round;stroke-linejoin:round;stroke-miterlimit:10;stroke-dasharray:none;stroke-opacity:1"
       id="path362" />
    <path
       d="m 447.93444,492.45263 a 7.5590552,7.5590552 0 1 1 -15.11811,0 7.5590552,7.5590552 0 1 1 15.11811,0 z"
       style="fill:none;stroke:#ff0000;stroke-width:0.999999;stroke-opacity:1"
       id="path930" />
    <path
       d="m 689.82421,492.45263 a 7.5590552,7.5590552 0 1 1 -15.11811,0 7.5590552,7.5590552 0 1 1 15.11811,0 z"
       style="fill:none;stroke:#ff0000;stroke-width:0.999999;stroke-opacity:1"
       id="path930-3" />
    <path
       d="m 689.82421,301.58649 a 7.5590552,7.5590552 0 1 1 -15.11811,0 7.5590552,7.5590552 0 1 1 15.11811,0 z"
       style="fill:none;stroke:#ff0000;stroke-width:0.999999;stroke-opacity:1"
       id="path930-3-8" />
    <path
       d="m 447.93444,301.58649 a 7.5590552,7.5590552 0 1 1 -15.11811,0 7.5590552,7.5590552 0 1 1 15.11811,0 z"
       style="fill:none;stroke:#ff0000;stroke-width:0.999999;stroke-opacity:1"
       id="path930-3-8-4" />
    <path
       style="fill:none;stroke:#ff00ff;stroke-width:0.999999px;stroke-linecap:butt;stroke-linejoin:miter;stroke-opacity:1"
       d="M 467.462,514.09495 V 503.16942"
       id="path3724" />
    <path
       style="fill:none;stroke:#ff00ff;stroke-width:0.999999px;stroke-linecap:butt;stroke-linejoin:miter;stroke-opacity:1"
       d="M 657.462,516.66417 V 505.73864"
       id="path3724-9" />
    <path
       style="fill:none;stroke:#ff00ff;stroke-width:0.999999px;stroke-linecap:butt;stroke-linejoin:miter;stroke-opacity:1"
       d="M 467.462,288.39714 V 277.47161"
       id="path3724-9-2" />
    <path
       style="fill:none;stroke:#ff00ff;stroke-width:0.999999px;stroke-linecap:butt;stroke-linejoin:miter;stroke-opacity:1"
       d="M 657.462,289.18767 V 278.26214"
       id="path3724-9-2-1" />
    <path
       id="rect1189-9"
       style="fill:#00ffff;stroke:#00ffff;stroke-width:2.34767;paint-order:markers fill stroke"
       d="m 727.03143,464.22523 h 17.33509 v -72.19554 h -17.33509 z" />
    <path
       id="rect1189-9-8"
       style="fill:#00ffff;stroke:#00ffff;stroke-width:2.34767;paint-order:markers fill stroke"
       d="m 380.34583,401.45255 h 17.33509 v -72.19554 h -17.33509 z" />
  </g>
</svg>
